<?xml version="1.0" encoding="utf-8"?>
<!-- Generator: Adobe Illustrator 18.1.1, SVG Export Plug-In . SVG Version: 6.00 Build 0)  -->
<svg version="1.0" id="Layer_1" xmlns="http://www.w3.org/2000/svg" xmlns:xlink="http://www.w3.org/1999/xlink" x="0px" y="0px"
	 viewBox="0 0 53.6 22.1" enable-background="new 0 0 53.6 22.1" xml:space="preserve">
<g id="XMLID_626_">
	<g>
		<circle id="XMLID_113_" fill="#FFFFFF" cx="42.6" cy="11" r="4.3"/>
		<path id="XMLID_107_" fill="#FFFFFF" d="M32.7,15.9c0.9,1.8,3.8,6.2,9.9,6.2c6,0,11-5,11-11.1c0-6.2-4.9-11-11-11
			c-6,0-9.1,4.4-9.9,6.2c0-2.7-2.6-5.9-5.8-5.9h-10v21.6l9.3,0C30,21.9,32.7,18.7,32.7,15.9z M42.6,5.5c3,0,5.5,2.5,5.5,5.5
			c0,3-2.5,5.5-5.5,5.5c-3,0-5.5-2.5-5.5-5.5C37.1,7.9,39.6,5.5,42.6,5.5z M31.7,9.6c-0.1,0.6-0.2,2.4,0,3c-0.5-0.7-1.5-1.6-2.2-1.7
			C30.1,10.9,31.3,10.1,31.7,9.6z M22.5,5.2h3C26.4,5.2,27,6,27,7c0,1-0.7,1.8-1.5,1.8h-3V5.2z M22.5,16.9v-3.6h3
			c0.9,0,1.5,0.9,1.5,1.8c0,1-0.7,1.8-1.5,1.8H22.5z"/>
		<polygon id="XMLID_106_" fill="#FFFFFF" points="6,22 6,13.6 9.8,13.6 9.8,22 15.7,22 15.7,0.4 9.8,0.4 9.8,8.4 6,8.4 6,0.4 
			0,0.4 0,22 		"/>
		<path id="XMLID_103_" fill="#FFFFFF" d="M51.4,1.3h0.2l0.3,0.4H52l-0.3-0.4C51.9,1.3,52,1.2,52,1c0-0.2-0.1-0.3-0.3-0.3h-0.4v1
			h0.1V1.3z M51.4,0.9h0.2c0.1,0,0.2,0,0.2,0.1c0,0.1-0.1,0.2-0.2,0.2h-0.2V0.9z"/>
		<path id="XMLID_100_" fill="#FFFFFF" d="M51.6,2c0.5,0,0.8-0.4,0.8-0.8c0-0.5-0.4-0.8-0.8-0.8c-0.5,0-0.8,0.4-0.8,0.8
			C50.8,1.7,51.2,2,51.6,2z M51.6,0.5c0.4,0,0.7,0.3,0.7,0.7c0,0.4-0.3,0.7-0.7,0.7c-0.4,0-0.7-0.3-0.7-0.7
			C50.9,0.8,51.2,0.5,51.6,0.5z"/>
	</g>
</g>
</svg>
