<?xml version="1.0" standalone="no"?>
<!DOCTYPE svg PUBLIC "-//W3C//DTD SVG 1.1//EN" "http://www.w3.org/Graphics/SVG/1.1/DTD/svg11.dtd">
<svg width="100%" height="100%" viewBox="0 0 57 87" version="1.1" xmlns="http://www.w3.org/2000/svg" xmlns:xlink="http://www.w3.org/1999/xlink" xml:space="preserve" style="fill-rule:evenodd;clip-rule:evenodd;stroke-linejoin:round;stroke-miterlimit:1.41421;">
    <g transform="matrix(1,0,0,1,-21.762,-5.618)">
        <path d="M78.238,25.945L67.371,24.775C67.363,15.41 66.307,12.366 66.075,11.808C63.953,5.82 58.349,5.626 57.885,5.621C57.789,5.618 57.694,5.618 57.6,5.618C55.384,5.618 53.594,6.322 52.278,7.712C49.968,10.15 50.042,13.847 50.059,14.299L50.059,22.91L48.212,22.711L48.19,19.749C48.296,15.113 47.303,11.691 45.236,9.573C43.29,7.58 41.008,7.426 40.355,7.426C40.288,7.426 40.232,7.428 40.191,7.429C40.091,7.426 39.992,7.425 39.894,7.425C37.505,7.425 35.528,8.225 34.018,9.802C30.823,13.138 30.945,18.81 30.963,19.33L30.963,23.554L21.776,24.87L21.762,24.869L21.762,79.748L61.512,91.736L61.571,91.755L78.231,83.663L78.231,25.946L78.238,25.945ZM36.365,12.056C37.322,11.084 38.527,10.652 40.092,10.733L40.159,10.738L40.295,10.73C40.657,10.73 41.927,10.821 43.057,11.978C44.47,13.426 45.172,16.065 45.088,19.614L45.087,19.634L45.105,22.379L41.705,22.012L34.07,23.106L34.07,19.224C34.068,19.176 34.019,14.439 36.365,12.056ZM41.712,22.452L45.107,22.804L45.141,27.933L34.068,26.404L34.068,23.547L41.712,22.452ZM53.059,14.309C53.057,14.281 52.951,11.524 54.467,9.918C55.231,9.114 56.278,8.723 57.671,8.723C57.741,8.723 57.811,8.725 57.911,8.726C58.072,8.727 61.873,8.82 63.308,12.919L63.326,12.967C63.336,12.993 64.347,15.786 64.368,24.45L53.055,23.232L53.061,14.376L53.059,14.309ZM77.023,26.11L61.558,30.198L48.25,28.362L48.212,23.124L77.023,26.11ZM30.962,23.993L30.962,25.977L23.91,25.003L30.962,23.993Z" style="fill:black;fill-rule:nonzero;"/>
    </g>
</svg>
